<svg xmlns="http://www.w3.org/2000/svg" class="icon icon-tabler icon-tabler-message-2-code" width="250px" height="250px" viewBox="0 0 24 24" stroke-width="1.00" stroke="rgba(1, 1, 1, 1)" fill="none" stroke-linecap="round" stroke-linejoin="round"><circle cx="50%" cy="50%" r="50%" stroke="none" stroke-width="0" fill="rgba(255, 255, 255, 1)"/><g transform="translate(2.40, 2.40) scale(0.8)"><path stroke="none" d="M0 0h24v24H0z" fill="none"/><path d="M12 20l-3 -3h-2a3 3 0 0 1 -3 -3v-6a3 3 0 0 1 3 -3h10a3 3 0 0 1 3 3v6a3 3 0 0 1 -3 3h-2l-3 3"/><path d="M10 9l-2 2l2 2"/><path d="M14 9l2 2l-2 2"/></g>
  
  
  
  
</svg>